<?xml version="1.0" encoding="UTF-8" standalone="no"?>
<svg
   width="512px"
   height="512px"
   viewBox="0 0 161.75798 161.75799"
   version="1.1"
   id="svg1"
   xmlns="http://www.w3.org/2000/svg"
   xmlns:svg="http://www.w3.org/2000/svg">
  <defs
     id="defs1" />
  <path
     id="rect1-8"
     style="display:inline;fill:#f9f9f9;stroke:#ffffff;stroke-width:0"
     d="M 1.9096456e-8,0 H 161.75799 V 161.75799 H 1.9096456e-8 Z" />
  <path
     fill-rule="nonzero"
     fill="#fc5200"
     fill-opacity="1"
     d="m 60.4336,104.33203 c 0,-4.3125 -3.50781,-7.816401 -7.81641,-7.816401 -4.3125,0 -7.8164,3.503901 -7.8164,7.816401 0,4.3086 3.5039,7.81641 7.8164,7.81641 4.3086,0 7.81641,-3.50781 7.81641,-7.81641 m 91.40234,-8.421871 c -7.29297,0 -13.22656,-5.9336 -13.22656,-13.22656 0,-1.07032 0.14062,-2.10547 0.38281,-3.10157 L 108.4961,56.046879 c -2.39844,3.375 -6.33203,5.58984 -10.78125,5.58984 -1.64453,0 -3.21485,-0.31641 -4.66797,-0.86719 L 65.40235,100.99219 c 0.27734,1.07031 0.4414,2.18359 0.4414,3.33984 0,7.29297 -5.93359,13.22657 -13.22656,13.22657 -7.29297,0 -13.23047,-5.9336 -13.23047,-13.22657 0,-0.96875 0.11328,-1.91406 0.3125,-2.82422 L 18.95704,83.898439 c -2.36719,2.22266 -5.53907,3.59375 -9.0351601,3.59375 -3.95313,0 -7.49609,-1.75 -9.9218799,-4.50781 V 161.75781 H 18.02735 V 88.769529 c 0.28906,-0.15234 5.73828,4.92969 5.73828,4.92969 v 68.058591 h 24.22266 v -40.83984 c 1.47656,0.72266 3.02734,1.14844 4.6289,1.14844 0.39453,0 0.78516,-0.0312 1.17188,-0.0781 v 39.76953 h 24.1875 V 91.914089 l 5.80468,-8.83203 v 78.675781 h 23.82813 V 61.835969 c 0.51953,-0.35156 6.51953,4.01953 6.51953,4.01953 v 95.902341 h 23.83203 V 93.703159 c 1.57031,1.96875 3.54297,3.59375 5.80078,4.7539 v 63.300781 h 17.9961 V 91.402379 c -2.42578,2.75781 -5.96875,4.50781 -9.92188,4.50781 M 17.73829,74.265629 c 0,-4.3125 -3.50782,-7.82032 -7.8164101,-7.82032 -4.30859,0 -7.81641,3.50782 -7.81641,7.82032 0,4.30859 3.50782,7.8125 7.81641,7.8125 4.3085901,0 7.8164101,-3.50391 7.8164101,-7.8125 M 0,0 v 65.542969 c 2.4257899,-2.75781 5.9687499,-4.50781 9.9218799,-4.50781 7.2929701,0 13.2304701,5.93359 13.2304701,13.23047 0,1.83984 -0.38281,3.59375 -1.06641,5.1875 l 19.96485,16.94922 c 2.41406,-3.21094 6.24609,-5.30079 10.5664,-5.30079 3.94922,0 7.49219,1.75 9.91797,4.50391 l 25.94531,-37.74609 c -2.46093,-2.40235 -3.99218,-5.75 -3.99218,-9.45313 0,-7.29297 5.93359,-13.23047 13.22656,-13.23047 7.29687,0 13.23047,5.9375 13.23047,13.23047 0,0.85938 -0.0859,1.69531 -0.24219,2.50391 l 30.68359,23.6914 c 2.42188,-3.125 6.19922,-5.14843 10.44922,-5.14843 3.95313,0 7.4961,1.75 9.92188,4.50781 V 0 Z m 159.65235,82.683599 c 0,-4.3125 -3.50391,-7.82032 -7.81641,-7.82032 -4.30859,0 -7.8164,3.50782 -7.8164,7.82032 0,4.30859 3.50781,7.8164 7.8164,7.8164 4.3125,0 7.81641,-3.50781 7.81641,-7.8164 m -54.11719,-34.27735 c 0,-4.30859 -3.50781,-7.8164 -7.82031,-7.8164 -4.3086,0 -7.8125,3.50781 -7.8125,7.8164 0,4.3125 3.5039,7.81641 7.8125,7.81641 4.3125,0 7.82031,-3.50391 7.82031,-7.81641"
     id="path1"
     style="display:inline" />
</svg>
